<?xml version="1.0" standalone="no"?><!DOCTYPE svg PUBLIC "-//W3C//DTD SVG 1.1//EN" "http://www.w3.org/Graphics/SVG/1.1/DTD/svg11.dtd"><svg t="1588037334373" class="icon" viewBox="0 0 1024 1024" version="1.1" xmlns="http://www.w3.org/2000/svg" p-id="75917" xmlns:xlink="http://www.w3.org/1999/xlink" width="200" height="200"><defs><style type="text/css"></style></defs><path d="M168.096 349.664c92.704 0 167.84-76.832 167.84-171.616 0-94.72-75.136-171.584-167.84-171.584C75.392 6.464 0.256 83.296 0.256 178.048c0 94.784 75.136 171.616 167.84 171.616z m0-307.232c72.544 0 131.552 60.832 131.552 135.616 0 74.816-59.008 135.648-131.552 135.648-72.544 0-131.584-60.832-131.584-135.648 0-74.784 59.04-135.616 131.584-135.616zM850.752 1001.28c92.704 0 167.84-76.8 167.84-171.584 0-94.752-75.136-171.584-167.84-171.584-92.704 0-167.84 76.8-167.84 171.584 0 94.752 75.136 171.584 167.84 171.584z m0-307.2c72.544 0 131.584 60.832 131.584 135.616 0 74.784-59.04 135.648-131.584 135.648-72.544 0-131.584-60.864-131.584-135.648 0-74.784 59.04-135.616 131.584-135.616zM31.392 648.384h343.168v343.808H31.392V648.384z m39.808 39.84v264.128h263.584v-264.128H71.2zM846.848 1.088L1024 178.24l-176.832 176.8-177.12-177.152L846.848 1.088z m0.032 51.904L721.952 177.92l125.184 125.184 124.928-124.928-125.184-125.184z m-68.48 423.936l62.112-62.016v205.184l21.696 0.512 0.544-205.696 61.984 62.112 15.776-15.776-88.896-88.896-88.864 88.896 15.68 15.68z m-651.616 0l62.08-62.016v205.184l21.696 0.512 0.544-205.696 61.984 62.112 15.776-15.776-88.864-88.896-88.896 88.896 15.68 15.68zM550.88 148.16l61.984 62.112h-205.152l-0.544 21.696 205.696 0.544-62.08 61.984 15.744 15.776 88.896-88.896-88.896-88.864-15.68 15.68z" p-id="75918"></path></svg>